<svg width="243" height="167" viewBox="0 0 243 167" fill="none" xmlns="http://www.w3.org/2000/svg">
<g clip-path="url(#clip0_288_578)">
<path d="M78.9404 122.774L48.0083 126.525L57.2205 120.336L46.2483 101.58L16.7392 105.332L10.9723 125.85L22.2067 129.826L0 132.565L8.4258 126.188L25.5021 67.0326L19.8849 60.018L33.9279 56.8671L70.3273 118.611L78.9404 122.774ZM45.2372 99.8924L27.7115 70.3711H26.5881L17.3384 103.343L45.2372 99.8924Z" fill="white"/>
<path d="M127.847 72.5467L134.813 78.4735L108.599 75.8477L116.089 71.2713L121.481 16.8425H120.358L86.9917 76.8605L63.3994 11.2534H62.4632L57.0707 65.307L66.5076 71.684L44.0388 69.4333L54.5243 65.082L60.5159 6.60198L53.4008 0L72.7614 1.91307L93.3204 58.6676H94.5562L123.054 6.93958L141.553 8.77763L133.727 13.2415L127.847 72.5467Z" fill="white"/>
<path d="M206.938 69.1707L176.979 77.4231L185.218 69.9209L171.662 53.0408L142.976 60.8807L140.205 81.962L151.814 84.2877L130.319 90.177L137.809 82.6747L146.047 21.719L139.494 15.4546L152.975 10.3156L197.913 66.1698L206.938 69.1707ZM170.276 51.3528L148.781 24.6824L147.657 24.9824L143.201 58.7425L170.276 51.3528Z" fill="white"/>
<path d="M118.111 131.289L113.243 152.408V154.134L60.1415 149.67L106.015 85.3006L81.6366 83.1999L65.4965 101.28L70.0652 82.1871V80.3866L120.583 84.5503L74.896 148.92L101.896 151.208L118.111 131.289Z" fill="white"/>
<path d="M184.244 129.001L187.24 150.045L187.689 151.808L132.304 166.812L137.809 159.31L122.53 103.006L114.029 99.4798L166.232 85.188L166.718 86.9135L174.208 104.206L156.008 90.0269L132.94 96.3663L140.992 125.925L155.184 121.949L159.266 108.182L166.194 133.653L155.671 123.787L141.478 127.763L150.279 160.06L176.492 152.933L184.244 129.001Z" fill="white"/>
<path d="M180.537 102.106L184.768 100.98L190.985 124.162L186.791 125.288L180.537 102.106Z" fill="white"/>
<path d="M210.757 93.7781L217.198 117.11L213.903 118.01L196.115 105.932L200.347 121.686L196.153 122.812L189.899 99.6298L193.082 98.7671L211.094 111.146L206.75 95.0535L210.757 93.7781Z" fill="white"/>
<path d="M238.619 101.843L242.963 100.68C243.192 103.492 242.396 106.291 240.723 108.56C239.05 110.829 236.613 112.414 233.863 113.021C232.265 113.587 230.565 113.807 228.875 113.667C227.186 113.526 225.546 113.028 224.063 112.206C222.58 111.383 221.288 110.255 220.273 108.895C219.257 107.536 218.541 105.976 218.172 104.319C217.661 102.7 217.498 100.99 217.695 99.3034C217.892 97.6167 218.444 95.9911 219.315 94.5339C220.186 93.0768 221.355 91.8213 222.746 90.8504C224.137 89.8795 225.718 89.2152 227.384 88.9016C230.063 88.0459 232.96 88.1898 235.541 89.3067C238.122 90.4236 240.213 92.4381 241.427 94.9784L237.083 96.1413C236.236 94.6793 234.921 93.5467 233.351 92.9272C231.781 92.3076 230.048 92.2373 228.433 92.7277C227.327 92.9642 226.283 93.4326 225.37 94.102C224.458 94.7715 223.697 95.6268 223.138 96.6119C222.579 97.5969 222.235 98.6892 222.128 99.8171C222.02 100.945 222.153 102.083 222.516 103.156C222.734 104.273 223.187 105.33 223.846 106.257C224.505 107.184 225.354 107.959 226.336 108.531C227.318 109.102 228.411 109.458 229.541 109.572C230.671 109.687 231.812 109.558 232.889 109.195C234.532 108.797 235.993 107.854 237.033 106.519C238.073 105.184 238.632 103.536 238.619 101.843Z" fill="white"/>
<path d="M186.753 79.4113L176.754 82.0371C176.363 82.1427 176.029 82.3991 175.825 82.7505C175.622 83.1019 175.566 83.5197 175.668 83.9126L178.589 95.166C178.661 95.4679 178.824 95.74 179.057 95.9451C179.29 96.1501 179.58 96.2778 179.888 96.3107C180.196 96.3437 180.506 96.2801 180.777 96.1288C181.047 95.9776 181.264 95.746 181.398 95.4661L188.476 81.6995C188.662 81.4395 188.761 81.1266 188.757 80.8064C188.754 80.4862 188.648 80.1756 188.456 79.9199C188.263 79.6643 187.994 79.477 187.688 79.3855C187.381 79.2939 187.054 79.303 186.753 79.4113Z" fill="white"/>
</g>
<defs>
<clipPath id="clip0_288_578">
<rect width="243" height="167" fill="white"/>
</clipPath>
</defs>
</svg>
